<?xml version="1.0" encoding="UTF-8" standalone="no"?>
<svg width="202px" height="203px" viewBox="0 0 202 203" version="1.1" xmlns="http://www.w3.org/2000/svg" xmlns:xlink="http://www.w3.org/1999/xlink" xmlns:sketch="http://www.bohemiancoding.com/sketch/ns">
    <!-- Generator: Sketch 3.0.4 (8054) - http://www.bohemiancoding.com/sketch -->
    <title>Fast</title>
    <desc>Created with Sketch.</desc>
    <defs></defs>
    <g id="Home" stroke="none" stroke-width="1" fill="none" fill-rule="evenodd" sketch:type="MSPage">
        <g id="Homepage---Desktop" sketch:type="MSArtboardGroup" transform="translate(-498.000000, -944.000000)" fill="#000000">
            <g id="Features" sketch:type="MSLayerGroup" transform="translate(0.000000, 860.000000)">
                <path d="M537.20597,158.132836 L528.20597,158.132836 C539.716418,131.097015 566.546269,112.097015 597.734328,112.097015 C628.922388,112.097015 655.755224,131.097015 667.262687,158.132836 L658.253731,158.132836 C652.214925,145.795522 642.534328,135.547761 630.591045,128.849254 C630.925373,129.156716 631.268657,129.470149 631.570149,129.774627 C644.459701,142.661194 638.110448,144.034328 639.608955,158.132836 L574.964179,158.132836 C574.558209,147.228358 573.197015,136.335821 563.764179,129.49403 C552.328358,136.198507 543.056716,146.174627 537.20597,158.132836 L537.20597,158.132836 Z M630.552239,215.508955 C629.761194,225.807463 638.776119,230.595522 641.904478,238.422388 C632.874627,246.28806 621.731343,251.786567 609.447761,253.947761 C611.18209,252.664179 612.259701,250.577612 612.764179,248.50597 C613.892537,243.873134 609.8,240.219403 609.40597,235.792537 C608.871642,229.759701 607.540299,221.419403 599.814925,221.162687 C596.731343,221.061194 592.713433,222.765672 590.071642,220.68209 C587.638806,218.759701 585.573134,216.810448 582.376119,216.368657 C574.883582,215.329851 568.862687,222.10597 566.802985,228.613433 C564.81791,234.870149 567.038806,242.001493 568.60597,248.359701 C559.050746,243.759701 550.749254,236.953731 544.337313,228.625373 C549.958209,231.180597 555.585075,230.765672 556.146269,223.240299 C556.540299,217.968657 551.501493,212.968657 547.083582,207.91194 L524.997015,207.91194 C533.883582,239.735821 563.116418,263.153731 597.734328,263.153731 C632.349254,263.153731 661.555224,239.726866 670.447761,207.91194 L633.468657,207.91194 C631.949254,209.70597 630.907463,212.141791 630.552239,215.508955 L630.552239,215.508955 Z M570.474627,178.407463 L520.358209,178.407463 L520.358209,192.213433 L570.474627,192.213433 L570.474627,178.407463 L570.474627,178.407463 Z M699.18806,84.5 L699.18806,285.68806 L498,285.68806 L498,84.5 L699.18806,84.5 L699.18806,84.5 Z M508.298507,94.7985075 L508.298507,165.353731 L688.889552,165.353731 L688.889552,94.7985075 L508.298507,94.7985075 L508.298507,94.7985075 Z M511.477612,172.219403 L511.477612,197.968657 L685.710448,197.968657 L685.710448,172.219403 L511.477612,172.219403 L511.477612,172.219403 Z M688.889552,275.389552 L688.889552,204.834328 L508.298507,204.834328 L508.298507,275.389552 L688.889552,275.389552 L688.889552,275.389552 Z" id="Fast" sketch:type="MSShapeGroup"></path>
            </g>
        </g>
    </g>
</svg>