<?xml version="1.0" encoding="UTF-8" standalone="no"?>
<svg width="201px" height="164px" viewBox="0 0 201 164" version="1.1" xmlns="http://www.w3.org/2000/svg" xmlns:xlink="http://www.w3.org/1999/xlink" xmlns:sketch="http://www.bohemiancoding.com/sketch/ns">
    <!-- Generator: Sketch 3.0.4 (8054) - http://www.bohemiancoding.com/sketch -->
    <title>No Limits</title>
    <desc>Created with Sketch.</desc>
    <defs></defs>
    <g id="Home" stroke="none" stroke-width="1" fill="none" fill-rule="evenodd" sketch:type="MSPage">
        <g id="Homepage---Desktop" sketch:type="MSArtboardGroup" transform="translate(-843.000000, -963.000000)" fill="#000000">
            <g id="Features" sketch:type="MSLayerGroup" transform="translate(0.000000, 860.000000)">
                <path d="M1043.17531,194.878273 C1043.17531,219.641924 1023.0321,239.787242 998.276543,239.787242 L986.624691,239.787242 L986.624691,230.308545 L998.276543,230.308545 C1017.80741,230.308545 1033.6963,214.416045 1033.6963,194.880742 C1033.6963,175.345439 1017.80741,159.455409 998.276543,159.455409 C996.439506,159.455409 994.501235,159.630758 992.350617,159.993803 L989.320988,160.50503 L987.617284,157.946424 C981.019753,148.033061 969.990123,142.115667 958.118519,142.115667 C956.933333,142.115667 955.720988,142.177409 954.533333,142.295955 L950.535802,142.700985 L949.483951,138.823561 C945.303704,123.439818 931.266667,112.691697 915.340741,112.691697 C895.812346,112.691697 879.923457,128.584197 879.923457,148.11703 C879.923457,150.569439 880.185185,153.056424 880.706173,155.506364 L881.607407,159.746833 L877.466667,161.023667 C862.518519,165.624712 852.479012,179.232742 852.479012,194.883212 C852.479012,213.277515 866.567901,228.429106 884.51358,230.140606 C883.392593,230.711106 882.380247,231.508818 881.604938,232.543621 C880.520988,233.995803 879.925926,235.793742 879.925926,237.60403 C879.925926,238.09303 879.975309,238.58203 880.059259,239.061152 C859.032099,235.336848 843,216.969712 843,194.883212 C843,176.444455 853.995062,160.245712 870.755556,153.367606 C870.548148,151.619061 870.444444,149.863106 870.444444,148.1195 C870.444444,123.358318 890.585185,103.213 915.340741,103.213 C934.232099,103.213 951.02716,115.131758 957.451852,132.641909 C971.775309,132.461621 985.128395,138.986561 993.750617,150.233561 C995.31358,150.063152 996.809877,149.976712 998.279012,149.976712 C1023.0321,149.971773 1043.17531,170.117091 1043.17531,194.878273 L1043.17531,194.878273 Z M932.2,233.086955 L917.064198,239.066091 L917.064198,187.787773 C917.064198,187.118485 916.523457,186.575152 915.851852,186.575152 L903.723457,186.575152 C903.054321,186.575152 902.51358,187.118485 902.51358,187.787773 L902.51358,239.066091 L887.382716,233.086955 C886.874074,232.886909 886.296296,233.049909 885.967901,233.484576 C885.807407,233.701909 885.723457,233.956288 885.723457,234.215606 C885.723457,234.474924 885.807407,234.736712 885.975309,234.954045 L908.82963,264.689197 C909.059259,264.98803 909.414815,265.163379 909.792593,265.163379 C910.17037,265.163379 910.523457,264.98803 910.753086,264.689197 L933.609877,234.954045 C933.94321,234.521848 933.94321,233.919242 933.617284,233.484576 C933.288889,233.049909 932.706173,232.886909 932.2,233.086955 L932.2,233.086955 Z M994.479012,218.253955 C994.639506,218.036621 994.723457,217.779773 994.723457,217.522924 C994.723457,217.263606 994.639506,217.001818 994.471605,216.784485 L971.617284,187.049333 C971.387654,186.7505 971.032099,186.575152 970.654321,186.575152 C970.276543,186.575152 969.925926,186.7505 969.693827,187.049333 L946.837037,216.784485 C946.503704,217.216682 946.503704,217.819288 946.82963,218.253955 C947.158025,218.688621 947.738272,218.851621 948.244444,218.651576 L963.380247,212.672439 L963.380247,263.950758 C963.380247,264.620045 963.920988,265.163379 964.592593,265.163379 L976.720988,265.163379 C977.390123,265.163379 977.933333,264.622515 977.933333,263.950758 L977.933333,212.672439 L993.066667,218.651576 C993.57037,218.851621 994.150617,218.688621 994.479012,218.253955 L994.479012,218.253955 Z" id="No-Limits" sketch:type="MSShapeGroup"></path>
            </g>
        </g>
    </g>
</svg>