<?xml version="1.0" encoding="UTF-8" standalone="no"?>
<svg width="200px" height="202px" viewBox="0 0 200 202" version="1.1" xmlns="http://www.w3.org/2000/svg" xmlns:xlink="http://www.w3.org/1999/xlink" xmlns:sketch="http://www.bohemiancoding.com/sketch/ns">
    <!-- Generator: Sketch 3.0.4 (8054) - http://www.bohemiancoding.com/sketch -->
    <title>Safe</title>
    <desc>Created with Sketch.</desc>
    <defs></defs>
    <g id="Home" stroke="none" stroke-width="1" fill="none" fill-rule="evenodd" sketch:type="MSPage">
        <g id="Homepage---Desktop" sketch:type="MSArtboardGroup" transform="translate(-153.000000, -944.000000)" fill="#000000">
            <g id="Features" sketch:type="MSLayerGroup" transform="translate(0.000000, 860.000000)">
                <path d="M157.661972,135.968408 L301.076056,135.968408 C303.653521,135.968408 305.738028,133.873479 305.738028,131.285958 L305.738028,88.6881127 C305.738028,86.1005915 303.653521,84 301.076056,84 L157.661972,84 C155.084507,84 153,86.1005915 153,88.6881127 L153,131.285958 C153,133.870648 155.084507,135.968408 157.661972,135.968408 L157.661972,135.968408 Z M168.157746,96.4761549 L229.369014,96.4761549 L229.369014,121.080254 L168.157746,121.080254 L168.157746,96.4761549 L168.157746,96.4761549 Z M305.740845,173.263817 L305.740845,151.521845 C305.740845,148.934324 303.656338,146.839394 301.078873,146.839394 L157.661972,146.839394 C155.084507,146.839394 153,148.934324 153,151.521845 L153,194.11969 C153,196.712873 155.084507,198.807803 157.661972,198.807803 L240.585915,198.807803 L240.585915,188.047225 C240.585915,179.891155 247.185915,173.260986 255.298592,173.260986 L305.740845,173.260986 L305.740845,173.263817 Z M229.369014,183.288338 L168.157746,183.288338 L168.157746,158.684239 L229.369014,158.684239 L229.369014,183.288338 L229.369014,183.288338 Z M153,213.758239 L153,256.356085 C153,258.943606 155.084507,261.038535 157.661972,261.038535 L240.585915,261.038535 L240.585915,209.070127 L157.661972,209.070127 C155.084507,209.070127 153,211.170718 153,213.758239 L153,213.758239 Z M168.157746,222.755113 L229.369014,222.755113 L229.369014,247.359211 L168.157746,247.359211 L168.157746,222.755113 L168.157746,222.755113 Z M348.853521,184.587761 L255.298592,184.587761 C253.394366,184.587761 251.853521,186.13631 251.853521,188.050056 L251.853521,282.06993 C251.853521,283.978014 253.394366,285.532225 255.298592,285.532225 L348.853521,285.532225 C350.75493,285.532225 352.295775,283.978014 352.295775,282.06993 L352.295775,188.047225 C352.295775,186.133479 350.75493,184.587761 348.853521,184.587761 L348.853521,184.587761 Z M271.08169,189.776958 L333.070423,189.776958 L333.070423,218.904972 L271.08169,218.904972 L271.08169,189.776958 L271.08169,189.776958 Z M336.08169,278.168831 L268.073239,278.168831 L268.073239,235.058577 L336.084507,235.058577 L336.084507,278.168831 L336.08169,278.168831 Z M315.566197,194.102704 L324.177465,194.102704 L324.177465,214.870817 L315.566197,214.870817 L315.566197,194.102704 L315.566197,194.102704 Z M329.839437,245.728563 L274.309859,245.728563 L274.309859,242.266268 L329.839437,242.266268 L329.839437,245.728563 L329.839437,245.728563 Z M329.839437,257.839521 L274.309859,257.839521 L274.309859,254.382887 L329.839437,254.382887 L329.839437,257.839521 L329.839437,257.839521 Z" id="Safe" sketch:type="MSShapeGroup"></path>
            </g>
        </g>
    </g>
</svg>